<svg version="1.0" xmlns="http://www.w3.org/2000/svg" width="85.333" height="85.333" viewBox="0 0 64 64"><path d="M29.8 6.1C28.8 6.6 28 7.9 28 9c0 2.5-10.1 8.3-14.9 8.4-3.2.1-3.6.4-3.9 3-.2 1.9.2 3.2 1.2 3.8 2.3 1.3 2.3 14 0 15.8-.8.8-1.4 2.5-1.2 3.9.3 2.2.8 2.6 3.9 2.7 4.8.1 14.9 5.9 14.9 8.4 0 2.7 3.4 4.4 6 3 1.1-.6 2-1.9 2-3 0-2.5 10.1-8.3 14.9-8.4 3.3-.1 3.6-.4 3.9-3.4.2-2.2-.2-3.4-1.2-3.8-2.3-.9-2.3-13.6 0-15.4.8-.8 1.4-2.5 1.2-3.9-.3-2.2-.8-2.6-3.9-2.7C46.1 17.3 36 11.5 36 9c0-1.1-.9-2.4-1.9-3-2.3-1.2-2.2-1.2-4.3.1zm1 14.5c.2 5.4-.1 7.4-1.3 8.4-.8.7-1.5 2-1.5 2.9 0 1.9-11.4 8.6-13 7.6-.5-.3-1-3.4-1-6.8 0-8.4 2.5-13.1 8.7-16.8 7-4.1 7.7-3.7 8.1 4.7zM41.4 16c3.6 2 5.6 3.9 6 5.5.4 1.4 1.1 2.5 1.6 2.5 1.3 0 1.3 14.7 0 15.5-1.5.9-12.1-5.6-13-8-.5-1.3-1.4-2.6-1.9-3-1.2-.7-1.5-13.7-.4-14.8 1.1-1.1 2.1-.8 7.7 2.3zm.1 22.6c3 1.6 5.5 3.6 5.5 4.4 0 2.7-9.9 7.6-15 7.5-5.2 0-15-4.9-15-7.4 0-2.4 10.4-7.6 15.1-7.5 2.1.1 6.3 1.4 9.4 3z"/></svg>