<svg width="17" height="13" fill="none" xmlns="http://www.w3.org/2000/svg"><g clip-path="url(#clip0)"><path d="M.865.13h16v12h-16v-12z" fill="#3F9C35"/><path d="M.865.13h16v8h-16v-8z" fill="#ED2939"/><path d="M.865.13h16v4h-16v-4z" fill="#00B9E4"/><path d="M8.463 7.93a1.8 1.8 0 100-3.6 1.8 1.8 0 000 3.6z" fill="#fff"/><path d="M8.863 7.63a1.5 1.5 0 100-3 1.5 1.5 0 000 3z" fill="#ED2939"/><path d="M10.463 5.13l.192.537.515-.245-.245.517.538.19-.538.193.245.515-.515-.245-.192.537-.193-.537-.515.245.245-.515-.537-.193.537-.192-.245-.515.515.245.193-.538z" fill="#fff"/></g><defs><clipPath id="clip0"><path fill="#fff" transform="translate(.863 .13)" d="M0 0h16v12H0z"/></clipPath></defs></svg>