<svg width="17" height="13" fill="none" xmlns="http://www.w3.org/2000/svg"><g clip-path="url(#clip0)"><path fill-rule="evenodd" clip-rule="evenodd" d="M17.473 12.161H.285V.13h17.188v12.032z" fill="#BA0000"/><path fill-rule="evenodd" clip-rule="evenodd" d="M8.635 5.953s-1.213-.522-1.04-1.876c.168-.65.466-1.095 1.004-1.337.254-.077.513-.113.776-.134a.58.58 0 00-.158.212c-.056.15-.014.291.064.435.096.164.155.333.174.554a.86.86 0 01-.343.792c-.155.12-.339.162-.49.299a.639.639 0 00-.21.425c-.005.378.096.432.223.63z" fill="#fff"/><path fill-rule="evenodd" clip-rule="evenodd" d="M8.402 3.995v-.007z" fill="#BA0000"/><path d="M8.402 3.995v-.007" stroke="#000" stroke-width="1.974"/><path d="M8.48 5.812c-.47-.416-.43-1.467-.07-1.817" stroke="#BA0000" stroke-width="1.974"/><path fill-rule="evenodd" clip-rule="evenodd" d="M8.698 3.76l.078.13-.141-.06-.11.118.018-.153-.14-.058.152-.036.019-.15.077.13.155-.036" fill="#BA0000"/><path fill-rule="evenodd" clip-rule="evenodd" d="M8.738 5.863S8.88 4.55 10.226 4.32c.672-.028 1.184.125 1.574.571.148.219.256.456.353.7a.557.557 0 00-.25-.086c-.157-.012-.281.07-.394.185a1.25 1.25 0 01-.48.33.86.86 0 01-.857-.095c-.16-.115-.254-.277-.428-.38a.663.663 0 00-.47-.08c-.364.108-.383.22-.536.4z" fill="#fff"/><path fill-rule="evenodd" clip-rule="evenodd" d="M10.54 5.07h.008z" fill="#BA0000"/><path d="M10.54 5.07h.008" stroke="#000" stroke-width="1.974"/><path d="M8.825 5.675c.263-.573 1.279-.84 1.718-.601" stroke="#BA0000" stroke-width="1.974"/><path fill-rule="evenodd" clip-rule="evenodd" d="M10.853 5.283l-.1.11.013-.152-.14-.07.147-.024.014-.158.08.141.15-.028-.1.11.077.142" fill="#BA0000"/><path fill-rule="evenodd" clip-rule="evenodd" d="M8.827 5.957s1.293-.282 1.937.924c.242.627.258 1.16-.04 1.67-.16.212-.353.389-.552.56a.555.555 0 00.002-.263c-.038-.155-.155-.247-.3-.317-.182-.08-.341-.2-.466-.353a.86.86 0 01-.181-.841c.056-.188.18-.33.223-.527a.658.658 0 00-.073-.47c-.218-.31-.331-.293-.55-.383z" fill="#fff"/><path fill-rule="evenodd" clip-rule="evenodd" d="M10.153 7.417l.005.004z" fill="#BA0000"/><path d="M10.153 7.417l.005.004" stroke="#000" stroke-width="1.974"/><path d="M9.037 5.981c.625.068 1.2.945 1.113 1.44" stroke="#BA0000" stroke-width="1.974"/><path fill-rule="evenodd" clip-rule="evenodd" d="M10.05 7.781l-.14-.061.154-.035.018-.158.073.134.153-.035-.106.117.07.134-.136-.06-.105.12" fill="#BA0000"/><path fill-rule="evenodd" clip-rule="evenodd" d="M8.8 6.091s.631 1.161-.342 2.115c-.535.41-1.043.576-1.616.433a3.66 3.66 0 01-.694-.374.549.549 0 00.257-.07c.136-.08.19-.219.218-.376.025-.197.095-.384.207-.548a.86.86 0 01.757-.411c.197.002.366.084.568.07a.679.679 0 00.433-.207c.235-.293.188-.399.211-.634v.002z" fill="#fff"/><path fill-rule="evenodd" clip-rule="evenodd" d="M7.77 7.774l-.002.005z" fill="#BA0000"/><path d="M7.77 7.774l-.002.005" stroke="#000" stroke-width="1.974"/><path d="M8.832 6.296c.115.62-.566 1.422-1.067 1.473" stroke="#BA0000" stroke-width="1.974"/><path fill-rule="evenodd" clip-rule="evenodd" d="M7.392 7.776l.02-.15.078.134.155-.024-.108.108.078.134-.144-.068-.108.108.02-.15-.144-.068" fill="#BA0000"/><path fill-rule="evenodd" clip-rule="evenodd" d="M8.656 6.065s-.884.983-2.11.386c-.565-.37-.889-.794-.943-1.382a3.6 3.6 0 01.12-.775c.04.084.084.16.153.216.12.1.27.106.43.08.191-.042.39-.037.58.014a.86.86 0 01.642.578c.063.186.042.374.124.56.07.145.155.248.336.338.357.124.44.044.668-.012v-.003z" fill="#fff"/><path fill-rule="evenodd" clip-rule="evenodd" d="M6.726 5.657l-.004-.003z" fill="#BA0000"/><path d="M6.726 5.657l-.004-.003" stroke="#000" stroke-width="1.974"/><path d="M8.472 6.167c-.545.312-1.527-.064-1.743-.517" stroke="#BA0000" stroke-width="1.974"/><path fill-rule="evenodd" clip-rule="evenodd" d="M6.6 5.3l.148-.031-.101.117.072.139-.136-.066-.1.118.016-.16-.14-.066.149-.03.016-.16" fill="#BA0000"/></g><defs><clipPath id="clip0"><path fill="#fff" transform="translate(.863 .13)" d="M0 0h16v12H0z"/></clipPath></defs></svg>