<svg width="17" height="13" fill="none" xmlns="http://www.w3.org/2000/svg"><g clip-path="url(#clip0)" fill-rule="evenodd" clip-rule="evenodd"><path d="M.363.784h18v12h-18v-12z" fill="#fff"/><path d="M.363.784h18v6h-18v-6z" fill="#DF0000"/><path d="M4.513 1.79a2.11 2.11 0 00.02 4.13 2.15 2.15 0 01-2.665-1.476 2.15 2.15 0 011.475-2.65c.4-.115.77-.117 1.172-.005h-.002z" fill="#fff"/><path d="M4.188 3.534l.122.375-.325-.23-.32.235.118-.38-.32-.232.397-.005.125-.375.125.375h.395l-.317.237zm.437 1.3l.125.378-.325-.23-.322.232.12-.377-.32-.235.397-.003.123-.377.125.375h.4l-.323.237zm1.463-.01l.122.38-.325-.232-.32.232.118-.377-.32-.233.397-.005.125-.375.125.375h.395l-.317.235zm.435-1.29l.122.378-.325-.23-.32.232.12-.377-.322-.235.4-.003.12-.377.125.375h.4l-.32.237zm-1.158-.857l.125.38-.325-.233-.322.235.12-.38-.32-.235.395-.002.125-.378.125.375h.4l-.323.238z" fill="#fff"/></g><defs><clipPath id="clip0"><path fill="#fff" transform="translate(.863 .784)" d="M0 0h16v12H0z"/></clipPath></defs></svg>