<svg width="17" height="13" fill="none" xmlns="http://www.w3.org/2000/svg"><g clip-path="url(#clip0)" fill-rule="evenodd" clip-rule="evenodd"><path d="M17.419 12.785H.304v-12H17.42v12z" fill="#fff"/><path d="M9.011 6.794a2.637 2.637 0 11-5.273 0 2.637 2.637 0 015.273 0z" fill="#fff"/><path d="M12.319 6.949c0 1.898-1.524 3.44-3.406 3.44-1.882 0-3.403-1.542-3.403-3.44 0-1.899 1.523-3.443 3.405-3.443 1.883 0 3.404 1.544 3.404 3.443z" fill="#C70000"/><path d="M1.95 3.757L3.91 1.49l.465.401L2.414 4.16l-.464-.403zm.642.555l1.96-2.266.466.398-1.962 2.271-.464-.403z" fill="#000"/><path d="M1.95 3.757L3.91 1.49l.465.401L2.414 4.16l-.464-.403z" fill="#000"/><path d="M1.95 3.757L3.91 1.49l.465.401L2.414 4.16l-.464-.403zm1.298 1.125l1.96-2.271.466.403-1.962 2.268-.464-.4z" fill="#000"/><path d="M1.95 3.757L3.91 1.49l.465.401L2.414 4.16l-.464-.403z" fill="#000"/><path d="M1.95 3.757L3.91 1.49l.465.401L2.414 4.16l-.464-.403zm11.925-2.27l1.945 2.284-.469.398-1.945-2.283.469-.398zm-1.306 1.114l1.946 2.283-.47.398L12.102 3l.468-.399z" fill="#000"/><path d="M12.895 3.916l1.838-1.589.344.398-1.969 1.768-.218-.577h.005z" fill="#fff"/><path d="M15.159 9.513l-1.884 2.245-.462-.384 1.884-2.245.462.384zm-1.931-7.474l1.945 2.283-.466.398-1.943-2.285.464-.396zm2.57 8.006l-1.886 2.245-.464-.384 1.887-2.245.464.384zm-1.29-1.073l-1.885 2.245-.462-.385 1.885-2.245.462.385z" fill="#000"/><path d="M5.56 6.342c.107.867.264 1.833 1.598 1.931.499.03 1.471-.117 1.804-1.481.44-1.308 1.758-1.683 2.656-.975.513.333.654.86.686 1.258-.04 1.266-.77 2.368-1.706 2.86-1.078.64-2.569.654-3.874-.317-.588-.55-1.411-1.57-1.165-3.276z" fill="#3D5897"/><path d="M13.326 9.48l1.842 1.585-.342.398-2.041-1.683.539-.3h.002z" fill="#fff"/><path d="M3.063 9.166l1.945 2.28-.468.399-1.946-2.28.469-.399z" fill="#000"/><path d="M2.728 11.043L4.57 9.452l.345.398-1.97 1.77-.217-.579v.002z" fill="#fff"/><path d="M3.71 8.615l1.945 2.28-.468.4L3.24 9.013l.469-.399zM2.405 9.73l1.945 2.28-.469.398-1.945-2.28.469-.398z" fill="#000"/></g><defs><clipPath id="clip0"><path fill="#fff" transform="translate(.863 .784)" d="M0 0h16v12H0z"/></clipPath></defs></svg>