<svg width="17" height="13" fill="none" xmlns="http://www.w3.org/2000/svg"><g clip-path="url(#clip0)" fill-rule="evenodd" clip-rule="evenodd"><path d="M.863.784h16v12h-16v-12z" fill="#E30A17"/><path d="M11.037 6.972c0 1.655-1.365 2.997-3.05 2.997-1.684 0-3.05-1.342-3.05-3 0-1.657 1.365-2.995 3.05-2.995 1.685 0 3.05 1.343 3.05 2.998z" fill="#fff"/><path d="M11.188 6.972c0 1.325-1.09 2.397-2.438 2.397-1.347 0-2.44-1.075-2.44-2.4s1.093-2.395 2.44-2.395c1.348 0 2.44 1.073 2.44 2.398h-.002z" fill="#E30A17"/><path d="M11.63 5.572l-.025 1.107-1.033.28 1.02.363-.024 1.017.662-.795 1.005.35-.58-.852.708-.848-1.088.3-.645-.925v.003z" fill="#fff"/></g><defs><clipPath id="clip0"><path fill="#fff" transform="translate(.863 .784)" d="M0 0h16v12H0z"/></clipPath></defs></svg>