<svg width="17" height="13" fill="none" xmlns="http://www.w3.org/2000/svg"><g clip-path="url(#clip0)"><path d="M-3.153.784H20.91v12.032H-3.153V.784z" fill="#012169"/><path d="M-3.153.784v1.344L18.22 12.816h2.69v-1.344L-.462.784h-2.69zm24.064 0v1.344L-.463 12.816h-2.69v-1.344L18.22.784h2.69z" fill="#fff"/><path d="M6.874.784v12.032h4.01V.784h-4.01zM-3.153 4.796v4.009H20.91v-4.01H-3.153z" fill="#fff"/><path d="M-3.153 5.597v2.406H20.91V5.597H-3.153zM7.675.784v12.032h2.407V.784H7.675zM-3.153 12.816l8.02-4.011h1.796l-8.023 4.011h-1.793zm0-12.032l8.02 4.012H3.074l-6.227-3.114V.784zm14.25 4.012l8.02-4.012h1.794l-8.02 4.012h-1.794zm9.814 8.02l-8.02-4.011h1.792l6.228 3.114v.897z" fill="#C8102E"/></g><defs><clipPath id="clip0"><path fill="#fff" transform="translate(.863 .784)" d="M0 0h16v12H0z"/></clipPath></defs></svg>