<svg width="17" height="13" fill="none" xmlns="http://www.w3.org/2000/svg"><g clip-path="url(#clip0)" fill-rule="evenodd" clip-rule="evenodd"><path d="M.863.784h22.8v.924H.863V.784zm0 1.847h22.8v.923H.863v-.923zm0 1.845h22.8V5.4H.863v-.925zm0 1.846h22.8v.924H.863v-.924zm0 1.847h22.8v.924H.863v-.924zm0 1.845h22.8v.923H.863v-.923zm0 1.847h22.8v.923H.863v-.923z" fill="#BD3D44"/><path d="M.863 1.708h22.8v.923H.863v-.923zm0 1.847h22.8v.92H.863v-.92zm0 1.844h22.8v.923H.863V5.4zm0 1.847h22.8v.923H.863v-.923zm0 1.847h22.8v.923H.863v-.923zm0 1.844h22.8v.924H.863v-.924z" fill="#fff"/><path d="M.863.784h9.12v6.462H.862V.784z" fill="#192F5D"/><path d="M1.622 1.06l.084.256h.267l-.215.157.082.258-.218-.16-.216.158.082-.256-.218-.157h.272l.08-.255zm1.52 0l.083.256h.27l-.218.157.082.258-.216-.16-.218.158.082-.256-.216-.157h.268l.084-.255zm1.52 0l.084.256h.265l-.216.157.082.258-.218-.16-.215.158.082-.256-.218-.157h.27l.084-.255zm1.52 0l.083.256h.27l-.219.157.085.258-.218-.16-.218.158.084-.256-.218-.157h.267l.085-.255zm1.52 0l.084.256h.267l-.216.157.082.258-.217-.16-.216.158.082-.256-.216-.157h.267l.083-.255zm1.52 0l.083.256h.27l-.219.157.085.258-.218-.16-.218.158.084-.256-.218-.157h.27l.082-.255zm-6.838.648l.082.255h.27l-.219.157.08.256-.211-.157-.218.157.077-.256-.21-.157h.267l.082-.255zm1.518 0l.085.255h.267l-.218.157.084.256-.218-.157-.218.157.085-.256-.218-.157h.27l.081-.255zm1.521 0l.082.255h.27l-.218.157.082.256-.216-.157-.218.157.082-.256-.215-.157h.267l.084-.255zm1.52 0l.084.255h.267l-.218.157.084.256-.218-.157-.215.157.082-.256-.218-.157h.271l.08-.255zm1.52 0l.082.255h.27l-.218.157.082.256-.216-.157-.218.157.082-.256-.215-.157h.267l.084-.255zm-6.841.644l.084.26h.267l-.215.157.082.256-.218-.16-.216.16.082-.258-.218-.157h.272l.08-.258zm1.52 0l.083.258h.27l-.218.157.082.256-.216-.16-.218.16.082-.258-.216-.157h.268l.084-.256zm1.52 0l.084.258h.265l-.216.157.082.256-.218-.16-.215.16.082-.258-.218-.157h.27l.084-.256zm1.52 0l.083.258h.27l-.219.157.085.256-.218-.16-.218.16.084-.258-.218-.157h.267l.085-.256zm1.52 0l.084.258h.267l-.216.157.082.256-.217-.16-.216.16.082-.258-.216-.157h.267l.083-.256zm1.52 0l.083.258h.27l-.219.157.085.256-.218-.16-.218.16.084-.258-.218-.157h.27l.082-.256zM2.385 3l.082.256h.27l-.219.157.082.257-.215-.159-.218.157.082-.255-.216-.157H2.3L2.385 3zm1.518 0l.085.256h.267l-.218.157.084.257-.218-.159-.218.157.085-.255-.218-.157h.27L3.903 3zm1.521 0l.082.256h.27l-.218.157.082.257-.216-.159-.218.157.082-.255-.215-.157h.267L5.424 3zm1.52 0l.084.256h.267l-.216.157.082.257-.218-.159-.215.157.082-.255-.218-.157h.271L6.943 3zm1.52 0l.082.256h.27l-.218.157.082.257-.216-.159-.218.157.082-.255-.215-.157h.267L8.464 3zm-6.841.647l.084.255h.267l-.215.157.082.258-.218-.16-.216.158.082-.256-.218-.157h.272l.08-.255zm1.52 0l.083.255h.27l-.218.157.082.256-.216-.157-.218.157.082-.256-.216-.157h.268l.084-.255zm1.52 0l.084.255h.265l-.216.157.082.258-.218-.16-.215.158.082-.256-.218-.157h.27l.084-.255zm1.52 0l.083.255h.27l-.219.157.085.258-.218-.16-.218.158.084-.256-.218-.157h.267l.085-.255zm1.52 0l.084.255h.267l-.216.157.082.258-.217-.16-.216.158.082-.256-.216-.157h.267l.083-.255zm1.52 0l.083.255h.27l-.219.157.085.258-.218-.16-.218.158.084-.256-.218-.157h.27l.082-.255zm-6.838.647l.082.255h.27l-.219.157.082.256-.215-.16-.218.16.082-.258-.216-.157H2.3l.085-.253zm1.518 0l.085.255h.267l-.218.157.084.256-.218-.16-.218.16.085-.258-.218-.157h.27l.081-.253zm1.521 0l.082.255h.27l-.218.157.082.256-.216-.16-.218.16.082-.258-.215-.157h.267l.084-.253zm1.52 0l.084.255h.267l-.216.157.082.256-.218-.16-.215.16.082-.258-.218-.157h.271l.08-.253zm1.52 0l.082.255h.27l-.218.157.082.256-.216-.16-.218.16.082-.258-.215-.157h.267l.084-.253zm-6.841.644l.084.258h.267l-.215.157.082.253-.218-.157-.216.157.082-.255-.218-.157h.272l.08-.256zm1.52 0l.083.258h.27l-.218.157.084.253-.218-.157-.218.157.084-.255-.218-.157h.268l.084-.256zm1.52 0l.084.258h.265l-.216.157.082.253-.218-.157-.215.157.082-.255-.218-.157h.27l.084-.256zm1.52 0l.083.258h.27l-.219.157.085.253-.218-.157-.218.157.084-.255-.218-.157h.267l.085-.256zm1.52 0l.084.258h.267l-.216.157.082.253-.217-.157-.216.157.082-.255-.216-.157h.267l.083-.256zm1.52 0l.083.258h.27l-.219.157.085.253-.218-.157-.218.157.084-.255-.218-.157h.27l.082-.256zm-6.838.647l.082.256h.27l-.219.157.082.258-.215-.16-.218.157.082-.255-.216-.157H2.3l.085-.256zm1.518 0l.085.256h.267l-.218.157.084.258-.218-.16-.218.157.085-.255-.218-.157h.27l.081-.256zm1.521 0l.082.256h.27l-.218.157.082.258-.216-.16-.218.157.082-.255-.215-.157h.267l.084-.256zm1.52 0l.084.256h.267l-.216.157.082.258-.218-.16-.215.157.082-.255-.218-.157h.271l.08-.256zm1.52 0l.082.256h.27l-.218.157.082.258-.216-.16-.218.157.082-.255-.215-.157h.267l.084-.256zm-6.841.647l.084.256h.267l-.215.157.082.255-.218-.157-.216.157.082-.258-.218-.157h.272l.08-.253zm1.52 0l.083.256h.27l-.218.157.084.255-.218-.157-.218.157.084-.258-.218-.157h.268l.084-.253zm1.52 0l.084.256h.265l-.211.157.082.255-.218-.157-.216.157.082-.258-.218-.157h.27l.08-.253zm1.52 0l.083.256h.27l-.219.157.085.255-.218-.157-.218.157.084-.258-.218-.157h.267l.085-.253zm1.52 0l.084.256h.267l-.216.157.082.255-.217-.157-.216.157.082-.258-.216-.157h.267l.083-.253zm1.52 0l.083.256h.27l-.219.157.085.255-.218-.157-.218.157.084-.258-.218-.157h.27l.082-.253z" fill="#fff"/></g><defs><clipPath id="clip0"><path fill="#fff" transform="translate(.863 .784)" d="M0 0h16v12H0z"/></clipPath></defs></svg>