<svg width="17" height="13" fill="none" xmlns="http://www.w3.org/2000/svg"><g clip-path="url(#clip0)"><path d="M.863.784h24v12h-24v-12z" fill="#006"/><path fill-rule="evenodd" clip-rule="evenodd" d="M.863.784h8.75V5.16H.863V.784z" fill="#006"/><path d="M.863.784v.49L8.635 5.16h.978v-.49L1.84.784H.863zm8.75 0v.49L1.84 5.16H.863v-.49L8.635.784h.978z" fill="#fff"/><path d="M4.508.784V5.16h1.46V.784h-1.46zM.863 2.242v1.46h8.75v-1.46H.863z" fill="#fff"/><path d="M.863 2.534v.875h8.75v-.875H.863zM4.8.784V5.16h.875V.784H4.8zM.863 5.16L3.78 3.702h.65L1.518 5.159H.863zm0-4.375L3.78 2.242h-.652L.863 1.109V.784zm5.182 1.458L8.96.784h.653L6.695 2.242h-.65zM9.613 5.16L6.695 3.702h.653l2.265 1.132v.325z" fill="#C00"/><path fill-rule="evenodd" clip-rule="evenodd" d="M10.325 4.647l5.483-.023-.01 4.885s.192.743-2.3 1.873c.897-.093 1.875-1.05 1.875-1.05s.395-.508.587-.225c.14.21.317.393.52.542.143.11.255.415.04.64-.212.225-.55.255-.64-.02-.142.07-1.017 1.13-2.807 1.18a3.977 3.977 0 01-2.82-1.19s-.243.385-.59.08c-.335-.395-.08-.65-.08-.65s.285-.162.365-.275c.132-.152.175-.355.397-.355.265.02.368.233.368.233s.915.967 1.9 1.087c-2.225-1.067-2.308-1.727-2.3-1.89l.012-4.842z" fill="#fff"/><path fill-rule="evenodd" clip-rule="evenodd" d="M10.458 4.777l5.227-.03v4.7c.01.61-1.017 1.232-2.625 2.025-1.657-.855-2.612-1.375-2.625-2.035l.023-4.66v0z" fill="#006129" stroke="#000" stroke-width="1.7"/><path d="M11.088 9.957l.307-.453.31.453" stroke="#F7C600" stroke-width="1.7"/><path fill-rule="evenodd" clip-rule="evenodd" d="M11.455 9.787a.062.062 0 01-.061.075.063.063 0 01-.062-.075.062.062 0 01.063-.063.062.062 0 01.063.063h-.003z" fill="#F7C600" stroke="#000" stroke-width=".8"/><path fill-rule="evenodd" clip-rule="evenodd" d="M11.143 10.292h.48s.007-.06-.05-.1c.25-.033.185-.255.395-.268.04.008-.11.095-.11.095s-.125.09-.07.135c.047.035.067-.022.075-.067.005-.043.2-.07.175-.198-.05-.1-.325.07-.325.07h-.195c-.013-.025-.068-.112-.125-.112-.065.002-.11.112-.11.112h-.445s-.015.115.21.138a.26.26 0 00.132.1c-.027.025-.037.055-.037.095v0z" fill="#F7C600" stroke="#000" stroke-width=".8"/><path d="M10.995 9.96s.032.187.18.23m.002.004h.4-.4z" stroke="#000" stroke-width=".8"/><path fill-rule="evenodd" clip-rule="evenodd" d="M10.97 9.956c.016-.07.043-.082.072-.172.004-.089-.072-.079-.05-.135.04-.063.02-.12-.052-.165.013.079-.1.155-.1.221s.06.053.054.152c0 .06-.017.043-.02.1h.1-.004z" fill="url(#paint0_linear)" stroke="#000" stroke-width=".793"/><path fill-rule="evenodd" clip-rule="evenodd" d="M11.45 9.514a.059.059 0 01-.011.048.058.058 0 01-.07.016.057.057 0 01-.011-.097.058.058 0 01.092.033z" fill="#F7C600" stroke="#000" stroke-width=".8"/><path d="M11.068 9.024l.31-.455.31.455" stroke="#F7C600" stroke-width="1.7"/><path fill-rule="evenodd" clip-rule="evenodd" d="M11.438 8.854a.064.064 0 01-.013.052.062.062 0 01-.049.023.063.063 0 01-.06-.047.062.062 0 01-.001-.028.063.063 0 01.125 0h-.002z" fill="#F7C600" stroke="#000" stroke-width=".8"/><path fill-rule="evenodd" clip-rule="evenodd" d="M11.125 9.36h.48s.008-.06-.05-.1c.25-.033.185-.256.395-.268.04.007-.11.095-.11.095s-.125.087-.07.135c.048.035.068-.025.075-.068.005-.042.2-.072.175-.197-.05-.103-.325.07-.325.07H11.5c-.012-.025-.068-.113-.125-.113-.065.003-.11.113-.11.113h-.445s-.015.115.21.135c.05.067.09.085.133.102-.028.025-.038.055-.038.095v0z" fill="#F7C600" stroke="#000" stroke-width=".8"/><path d="M10.977 9.027s.033.185.18.23m.005.002h.398-.398z" stroke="#000" stroke-width=".8"/><path fill-rule="evenodd" clip-rule="evenodd" d="M10.955 9.021c.016-.07.043-.082.072-.172.004-.089-.072-.079-.05-.135.04-.063.02-.12-.052-.165.013.079-.1.155-.1.221s.06.053.054.152c0 .06-.017.043-.02.1h.099-.003z" fill="url(#paint1_linear)" stroke="#000" stroke-width=".793"/><path fill-rule="evenodd" clip-rule="evenodd" d="M11.433 8.582a.057.057 0 01-.057.07.057.057 0 11.057-.07v0z" fill="#F7C600" stroke="#000" stroke-width=".8"/><path d="M14.347 8.174l.308-.45.31.45" stroke="#F7C600" stroke-width="1.7"/><path fill-rule="evenodd" clip-rule="evenodd" d="M14.717 8.007a.064.064 0 01-.012.052.062.062 0 01-.049.023.062.062 0 01-.061-.075.063.063 0 01.122 0v0z" fill="#F7C600" stroke="#000" stroke-width=".8"/><path fill-rule="evenodd" clip-rule="evenodd" d="M14.405 8.51l.477.002s.008-.063-.05-.1c.25-.035.188-.255.398-.268.04.005-.11.095-.11.095s-.125.088-.07.133c.047.037.067-.02.072-.065.008-.045.205-.073.175-.198-.047-.102-.322.07-.322.07h-.198c-.01-.025-.065-.112-.122-.112-.065 0-.113.112-.113.112h-.445s-.015.113.21.135a.24.24 0 00.135.1c-.03.025-.037.058-.037.095v0z" fill="#F7C600" stroke="#000" stroke-width=".8"/><path d="M14.258 8.18s.032.184.177.23m.003.004h.4-.4z" stroke="#000" stroke-width=".8"/><path fill-rule="evenodd" clip-rule="evenodd" d="M14.23 8.174c.016-.07.043-.083.072-.172.004-.09-.072-.08-.05-.136.04-.062.02-.119-.052-.165.013.08-.1.155-.1.222 0 .066.06.052.053.152 0 .06-.016.043-.02.099h.1-.004z" fill="url(#paint2_linear)" stroke="#000" stroke-width=".793"/><path fill-rule="evenodd" clip-rule="evenodd" d="M14.713 7.734a.057.057 0 01-.057.07.058.058 0 01-.056-.07.058.058 0 01.113 0z" fill="#F7C600" stroke="#000" stroke-width=".8"/><path d="M11.145 7.27l.308-.456.31.455" stroke="#F7C600" stroke-width="1.7"/><path fill-rule="evenodd" clip-rule="evenodd" d="M11.515 7.1a.062.062 0 01-.034.068.062.062 0 01-.075-.017.062.062 0 01-.013-.052.062.062 0 01.122 0v0z" fill="#F7C600" stroke="#000" stroke-width=".8"/><path fill-rule="evenodd" clip-rule="evenodd" d="M11.203 7.604h.477s.008-.062-.05-.1c.25-.035.188-.255.398-.267.04.007-.11.095-.11.095s-.128.087-.07.135c.045.035.065-.025.072-.068.005-.042.203-.072.175-.197-.047-.103-.322.07-.322.07h-.198c-.012-.025-.065-.113-.122-.113-.065.003-.113.113-.113.113h-.445s-.015.115.21.135a.26.26 0 00.135.102c-.03.025-.037.055-.037.095v0z" fill="#F7C600" stroke="#000" stroke-width=".8"/><path d="M11.055 7.272s.033.185.178.23m.005.005h.4-.4z" stroke="#000" stroke-width=".8"/><path fill-rule="evenodd" clip-rule="evenodd" d="M11.03 7.266c.016-.07.043-.082.072-.172.004-.089-.072-.079-.05-.135.04-.063.02-.12-.052-.165.013.079-.1.155-.1.221s.06.053.053.152c0 .06-.016.043-.02.1h.1-.003z" fill="url(#paint3_linear)" stroke="#000" stroke-width=".793"/><path fill-rule="evenodd" clip-rule="evenodd" d="M11.51 6.827a.057.057 0 01-.056.07.057.057 0 01-.056-.07.057.057 0 01.112 0v0z" fill="#F7C600" stroke="#000" stroke-width=".8"/><path d="M11.153 6.377l.307-.453.31.455" stroke="#F7C600" stroke-width="1.7"/><path fill-rule="evenodd" clip-rule="evenodd" d="M11.523 6.21a.063.063 0 11-.126 0 .063.063 0 01.126 0v0z" fill="#F7C600" stroke="#000" stroke-width=".8"/><path fill-rule="evenodd" clip-rule="evenodd" d="M11.21 6.712h.478s.007-.06-.05-.1c.25-.033.185-.253.395-.265.042.005-.11.092-.11.092s-.125.09-.068.135c.045.035.065-.022.073-.065.005-.045.202-.075.175-.2-.048-.1-.325.07-.325.07h-.195c-.013-.022-.068-.11-.123-.112-.065.002-.112.112-.112.112h-.445s-.015.115.21.138c.05.065.09.085.135.1-.03.025-.038.055-.038.095v0z" fill="#F7C600" stroke="#000" stroke-width=".8"/><path d="M11.063 6.38s.03.187.177.23m.005.004h.398-.398z" stroke="#000" stroke-width=".8"/><path fill-rule="evenodd" clip-rule="evenodd" d="M11.037 6.376c.017-.07.043-.082.073-.172.003-.089-.073-.079-.05-.135.04-.063.02-.12-.053-.165.014.079-.099.155-.099.221s.06.053.053.152c0 .06-.016.043-.02.1h.1-.004z" fill="url(#paint4_linear)" stroke="#000" stroke-width=".793"/><path fill-rule="evenodd" clip-rule="evenodd" d="M11.518 5.934a.059.059 0 01-.012.048.058.058 0 01-.09 0 .057.057 0 01.01-.08.058.058 0 01.092.032v0z" fill="#F7C600" stroke="#000" stroke-width=".8"/><path d="M11.168 5.472l.31-.453.31.455" stroke="#F7C600" stroke-width="1.7"/><path fill-rule="evenodd" clip-rule="evenodd" d="M11.537 5.304a.062.062 0 01-.01.055.062.062 0 01-.077.018.063.063 0 01-.034-.044.063.063 0 01.002-.029.063.063 0 01.06-.05.062.062 0 01.062.05h-.002z" fill="#F7C600" stroke="#000" stroke-width=".8"/><path fill-rule="evenodd" clip-rule="evenodd" d="M11.228 5.81h.475s.01-.063-.05-.1c.252-.036.187-.256.4-.268.037.005-.113.092-.113.092s-.125.09-.067.135c.045.038.065-.022.072-.065.005-.045.2-.072.175-.2-.05-.1-.325.07-.325.07H11.6c-.012-.022-.067-.11-.125-.11-.065 0-.11.113-.11.113h-.445s-.015.112.21.135a.27.27 0 00.135.1c-.03.025-.037.055-.037.095v.002z" fill="#F7C600" stroke="#000" stroke-width=".8"/><path d="M11.078 5.474s.032.188.18.233m.005.002h.397-.397z" stroke="#000" stroke-width=".8"/><path fill-rule="evenodd" clip-rule="evenodd" d="M11.055 5.471c.016-.07.043-.082.072-.172.004-.089-.072-.079-.05-.135.04-.063.02-.12-.052-.165.013.079-.1.155-.1.221s.06.053.054.152c0 .06-.017.043-.02.1h.099-.003z" fill="url(#paint5_linear)" stroke="#000" stroke-width=".793"/><path fill-rule="evenodd" clip-rule="evenodd" d="M11.535 5.032a.057.057 0 01-.056.07.058.058 0 01-.045-.022.057.057 0 01.009-.081.057.057 0 01.092.033v0z" fill="#F7C600" stroke="#000" stroke-width=".8"/><path d="M14.373 5.487l.307-.453.31.455" stroke="#F7C600" stroke-width="1.7"/><path fill-rule="evenodd" clip-rule="evenodd" d="M14.743 5.317a.063.063 0 11-.125 0 .063.063 0 01.125 0z" fill="#F7C600" stroke="#000" stroke-width=".8"/><path fill-rule="evenodd" clip-rule="evenodd" d="M14.43 5.822h.478s.007-.06-.05-.1c.25-.033.184-.253.394-.265.043.005-.11.092-.11.092s-.124.09-.067.135c.045.035.065-.022.073-.065.005-.045.202-.075.175-.2-.048-.1-.325.07-.325.07h-.195c-.013-.022-.066-.11-.123-.11-.065 0-.112.11-.112.11h-.445s-.015.115.21.138a.27.27 0 00.134.1c-.03.025-.037.055-.037.095v0z" fill="#F7C600" stroke="#000" stroke-width=".8"/><path d="M14.28 5.49s.033.187.18.232m.002.002h.4-.4z" stroke="#000" stroke-width=".8"/><path fill-rule="evenodd" clip-rule="evenodd" d="M14.255 5.486c.016-.07.043-.082.072-.172.004-.089-.072-.079-.05-.135.04-.063.02-.12-.052-.165.013.079-.1.155-.1.221s.06.053.054.152c0 .06-.017.043-.02.1h.099-.003z" fill="url(#paint6_linear)" stroke="#000" stroke-width=".793"/><path fill-rule="evenodd" clip-rule="evenodd" d="M14.738 5.044a.057.057 0 01-.057.07.058.058 0 01-.056-.045.058.058 0 11.112-.025v0z" fill="#F7C600" stroke="#000" stroke-width=".8"/><path d="M14.342 6.374l.308-.452.31.455" stroke="#F7C600" stroke-width="1.7"/><path fill-rule="evenodd" clip-rule="evenodd" d="M14.712 6.204a.064.064 0 01-.012.052.062.062 0 01-.049.023.063.063 0 01-.06-.047.06.06 0 01-.001-.028.063.063 0 01.125 0h-.003z" fill="#F7C600" stroke="#000" stroke-width=".8"/><path fill-rule="evenodd" clip-rule="evenodd" d="M14.4 6.71h.477s.008-.06-.05-.1c.25-.033.188-.253.398-.266.04.005-.11.093-.11.093s-.125.09-.07.135c.047.037.068-.023.072-.065.008-.045.205-.073.175-.2-.047-.1-.322.072-.322.072h-.195c-.013-.025-.068-.112-.125-.112-.065 0-.113.11-.113.11h-.445s-.014.115.21.137c.05.068.09.085.136.1-.03.025-.038.055-.038.095v0z" fill="#F7C600" stroke="#000" stroke-width=".8"/><path d="M14.253 6.377s.032.187.177.232m.005.005l.4-.002-.4.002z" stroke="#000" stroke-width=".8"/><path fill-rule="evenodd" clip-rule="evenodd" d="M14.227 6.374c.017-.07.043-.083.073-.172.003-.09-.073-.08-.05-.136.04-.063.02-.119-.053-.165.014.08-.099.155-.099.222 0 .066.06.052.053.152 0 .06-.017.043-.02.099h.1-.004z" fill="url(#paint7_linear)" stroke="#000" stroke-width=".793"/><path fill-rule="evenodd" clip-rule="evenodd" d="M14.707 5.934a.057.057 0 01-.056.07.057.057 0 01-.036-.102.057.057 0 01.092.032v0z" fill="#F7C600" stroke="#000" stroke-width=".8"/><path d="M14.303 7.284l.31-.455.31.455" stroke="#F7C600" stroke-width="1.7"/><path fill-rule="evenodd" clip-rule="evenodd" d="M14.673 7.114a.064.064 0 01-.013.052.061.061 0 01-.049.023.063.063 0 01-.06-.047.06.06 0 010-.028.063.063 0 01.124 0h-.002z" fill="#F7C600" stroke="#000" stroke-width=".8"/><path fill-rule="evenodd" clip-rule="evenodd" d="M14.363 7.617h.475s.01-.06-.05-.1c.252-.033.187-.253.397-.265.04.005-.11.092-.11.092s-.125.09-.07.135c.048.038.068-.022.075-.065.008-.042.2-.072.175-.2-.05-.1-.325.07-.325.07h-.192c-.013-.022-.068-.11-.125-.11-.065 0-.11.11-.11.11h-.445s-.015.115.21.138a.27.27 0 00.132.1c-.027.025-.037.055-.037.095v0z" fill="#F7C600" stroke="#000" stroke-width=".8"/><path d="M14.213 7.284s.032.185.18.23m.002.005h.4-.4z" stroke="#000" stroke-width=".8"/><path fill-rule="evenodd" clip-rule="evenodd" d="M14.187 7.281c.017-.069.043-.082.073-.172.003-.089-.073-.079-.05-.135.04-.063.02-.12-.053-.165.014.079-.099.155-.099.221s.06.053.053.152c0 .06-.017.043-.02.1h.1-.004z" fill="url(#paint8_linear)" stroke="#000" stroke-width=".793"/><path fill-rule="evenodd" clip-rule="evenodd" d="M14.668 6.842a.059.059 0 01-.012.048.058.058 0 01-.09 0 .057.057 0 01.045-.094.057.057 0 01.056.046z" fill="#F7C600" stroke="#000" stroke-width=".8"/><path d="M14.342 9.967l.308-.455.31.455" stroke="#F7C600" stroke-width="1.3"/><path fill-rule="evenodd" clip-rule="evenodd" d="M14.712 9.797a.064.064 0 01-.012.052.062.062 0 01-.049.023.063.063 0 01-.048-.023.063.063 0 01.009-.088.062.062 0 01.1.036v0z" fill="#F7C600" stroke="#000" stroke-width=".8"/><path fill-rule="evenodd" clip-rule="evenodd" d="M14.4 10.302h.477s.008-.063-.05-.1c.25-.033.188-.255.398-.268.04.008-.11.095-.11.095s-.125.088-.07.135c.047.035.068-.025.072-.067.008-.043.205-.073.175-.198-.047-.102-.322.07-.322.07h-.197c-.01-.025-.066-.112-.123-.112-.065.002-.113.112-.113.112h-.445s-.014.115.21.135a.26.26 0 00.136.103c-.03.025-.038.055-.038.095v0z" fill="#F7C600" stroke="#000" stroke-width=".8"/><path d="M14.253 9.97s.032.184.177.23m.005.004h.4-.4z" stroke="#000" stroke-width=".8"/><path fill-rule="evenodd" clip-rule="evenodd" d="M14.227 9.968c.016-.072.041-.085.072-.174.005-.09-.072-.077-.051-.136.04-.062.02-.121-.052-.167.013.082-.097.156-.097.223s.056.051.051.154c.003.056-.015.044-.02.1h.097v0z" fill="url(#paint9_linear)" stroke="#000" stroke-width=".821"/><path fill-rule="evenodd" clip-rule="evenodd" d="M14.707 9.524a.057.057 0 01-.056.07.057.057 0 11.056-.07z" fill="#F7C600" stroke="#000" stroke-width=".8"/><path d="M14.338 9.07l.307-.456.31.455" stroke="#F7C600" stroke-width="1.7"/><path fill-rule="evenodd" clip-rule="evenodd" d="M14.707 8.9a.064.064 0 01-.012.051.062.062 0 01-.049.023.062.062 0 01-.06-.047.06.06 0 01-.001-.028.063.063 0 01.125 0h-.003z" fill="#F7C600" stroke="#000" stroke-width=".8"/><path fill-rule="evenodd" clip-rule="evenodd" d="M14.395 9.404h.478s.007-.062-.05-.1c.25-.035.187-.255.397-.267.04.005-.11.095-.11.095s-.125.087-.07.132c.048.038.068-.02.075-.065.005-.042.2-.072.175-.197-.05-.103-.325.07-.325.07h-.197c-.01-.025-.065-.113-.123-.113-.065 0-.112.113-.112.113h-.445s-.015.112.21.135c.05.067.092.085.135.102-.03.025-.038.055-.038.095v0z" fill="#F7C600" stroke="#000" stroke-width=".8"/><path d="M14.248 9.072s.032.185.18.23m.002.005h.4-.4z" stroke="#000" stroke-width=".8"/><path fill-rule="evenodd" clip-rule="evenodd" d="M14.222 9.066c.017-.069.043-.082.073-.171.003-.09-.073-.08-.05-.136.04-.063.02-.12-.053-.165.013.079-.099.155-.099.221s.06.053.053.152c0 .06-.017.043-.02.1h.1-.004z" fill="url(#paint10_linear)" stroke="#000" stroke-width=".793"/><path fill-rule="evenodd" clip-rule="evenodd" d="M14.702 8.627a.057.057 0 01-.011.048.058.058 0 01-.09 0 .059.059 0 01-.011-.048.057.057 0 01.112 0z" fill="#F7C600" stroke="#000" stroke-width=".8"/><path d="M11.73 8.234l.308-.452.31.452" stroke="#F7C600" stroke-width="1.7"/><path fill-rule="evenodd" clip-rule="evenodd" d="M12.1 8.064a.064.064 0 01-.013.052.062.062 0 01-.048.023.063.063 0 01-.06-.047.062.062 0 01.02-.064.062.062 0 01.101.036v0z" fill="#F7C600" stroke="#000" stroke-width=".8"/><path fill-rule="evenodd" clip-rule="evenodd" d="M11.788 8.57h.477s.008-.06-.05-.1c.25-.033.188-.256.398-.268.04.007-.11.095-.11.095s-.125.09-.07.135c.045.035.065-.025.072-.068.008-.042.203-.07.175-.197-.047-.1-.322.07-.322.07h-.195c-.013-.025-.065-.113-.123-.113-.065.003-.112.113-.112.113h-.445s-.015.115.21.135a.27.27 0 00.135.102c-.03.025-.038.055-.038.095h-.002z" fill="#F7C600" stroke="#000" stroke-width=".8"/><path d="M11.637 8.234s.03.188.178.23m.008.008h.4-.4z" stroke="#000" stroke-width=".8"/><path fill-rule="evenodd" clip-rule="evenodd" d="M11.614 8.234c.017-.07.043-.083.073-.172.004-.09-.072-.08-.05-.136.04-.062.02-.119-.052-.165.013.08-.1.155-.1.222 0 .066.06.053.054.152 0 .06-.017.043-.02.099h.099-.004z" fill="url(#paint11_linear)" stroke="#000" stroke-width=".793"/><path fill-rule="evenodd" clip-rule="evenodd" d="M12.095 7.792a.059.059 0 01-.012.048.058.058 0 01-.069.016.057.057 0 01-.011-.097.057.057 0 01.092.033v0zm1.285 2.598s.125.287.268.11c.142-.178.09-.253.09-.253l-.318-.175-.095.2.055.117v0z" fill="#F7C600" stroke="#000" stroke-width=".8"/><path fill-rule="evenodd" clip-rule="evenodd" d="M13.655 10.35s.02.004.038-.026c.017-.03-.038-.047-.063-.082l-.025.057.05.05v0zm-.722-.076l-.28.153s-.14.027-.15 0c-.01-.028.005-.05.075-.055.075-.005.272-.185.272-.185l.083.087v0zm.005-4.992l.01.1c.002.035-.055.11-.06.105-.005-.005-.03.005-.025.025.005.02.042.027.042.027s-.017.075 0 .075c.018.005-.045.095 0 .12.045.025.123.055.158.05.035-.01 0 .133 0 .133l-.1.207.537-.055-.112-.175s-.05-.035-.038-.137c.015-.1-.007-.555-.007-.555l-.38-.05-.025.13v0zm-.1.792s-.173.08-.165.295c-.045.208-.068.415-.068.415s-.205.233-.267.315c-.063.083-.158.255-.193.3-.035.045-.17.193-.165.25.003.055-.032.3.103.328.035.015.147-.283.147-.283s.005-.13-.032-.152c-.038-.023.082-.108.082-.108l.285-.212c.053-.043.195-.2.195-.2l.08-.95-.002.002z" fill="#FFC6B5" stroke="#000" stroke-width=".8"/><path fill-rule="evenodd" clip-rule="evenodd" d="M13.038 5.91s.045.122.145.1c.1-.02.22-.113.22-.113s.092-.003.107.01c.013.015.253.247.245.32-.007.072-.11.05-.15.1-.04.05-.1.17-.082.26.017.09.07.207.062.252-.007.045-.045.06-.045.085 0 .025.033.065.033.11s-.043.11-.035.158c.007.042.01.175.01.175l-.01.61s.035.022.037.057c.003.035.235 1.043.235 1.043s-.01.032-.035.027c-.025-.005.095.158.1.2.005.043.12.4.118.45a.619.619 0 01-.033.16c-.01.003.075.223.063.255-.015.035-.155.033-.155.033l-.04-.008s.005.045-.025.05c-.03.005-.23-.012-.23-.012s-.06.09-.095.087c-.035-.002-.08-.065-.09-.055-.01.01.032.07.02.088-.01.017-.188.055-.22-.03-.035-.083.02-.063.01-.08-.01-.015-.09-.06-.115-.048-.025.013.062.035.06.07-.005.035-.075.088-.105.088s-.095-.13-.19-.115a.672.672 0 00-.16.037s-.115.05-.163.038c-.05-.01-.07-.05-.07-.07 0-.02.035-.11.03-.138-.005-.027-.03-.055-.03-.097 0-.04.08-.183.08-.183l-.005-.64s-.072 0-.075-.045c-.002-.045.11-1.01.128-1.072.017-.063.062-.283.062-.283s-.05.025-.055 0c-.005-.025.155-.575.155-.575s.028-.275.028-.35c0-.072-.013-.172-.013-.172s-.142-.06-.145-.15c-.015-.15.135-.23.15-.28l.07-.195s.078-.13.203-.15v-.003z" fill="#fff" stroke="#000" stroke-width=".8"/><path fill-rule="evenodd" clip-rule="evenodd" d="M12.988 10.317s-.338.175-.388.19c-.05.015-.08-.06-.03-.075.05-.013.125-.02.125-.02s-.115-.09-.112-.093l.16-.06c.002 0 .05.09.08.085a.592.592 0 00.122-.075l.04.048h.003z" fill="#F7C600" stroke="#000" stroke-width=".8"/><path fill-rule="evenodd" clip-rule="evenodd" d="M13.46 10.412c.033.042.045.112.118.072.072-.04-.038-.12-.038-.12l-.08.05v-.002zm.133-.005s.035.025.065-.005c.03-.03-.063-.098-.063-.098l-.045.053.043.05v0z" fill="#FFC6B5" stroke="#000" stroke-width=".8"/><path d="M13.255 10.032s-.03.31.245.082c.275-.225.318 0 .325.068m-.337-4.135s-.308.197-.3.265l.3-.265zm.07.032l-.07.08.07-.08zm.097.088s-.152.125-.13.205l.13-.205zm-.722-.135s-.045.092-.035.125c.01.03.087.15.097.22.01.075 0 .125 0 .125l-.062-.47zm-.08.172s.015.11.035.133a.54.54 0 01.082.15l-.117-.283zm-.028.463s.09.045.175-.13l-.175.13zm.308-.25c-.003 0-.065.17.045.232.11.063.195.055.245.038.047-.018.1-.05.1-.05l-.39-.22zm-.048.207s.008.23.345.455l-.345-.455zm.015.215s-.005.2.128.293l-.128-.293zm-.072-.235s-.1.298-.178.328l.178-.328zM13 6.822s-.005.215-.032.292L13 6.822zm-.06.342s.07.088.145.08c.075-.005.108-.097.16-.082.05.015.1.055.223.045l-.528-.043zm.353.133s0 .175.032.195c.033.02.018.18.018.18l-.05-.375zm-.425-.088s-.003.165-.025.225c-.02.06-.063.16-.055.245l.08-.47zm-.213.57a.522.522 0 00.075-.06l-.075.06zm.108-.022s-.15.637-.108 1.02l.108-1.02zm.035.032s-.075.478-.04.568l.04-.568zm-.038-.015l.293.02-.293-.02zm.333-.017s.08.042.19.035l-.19-.035zm-.035.232s-.013.818-.035 1l.035-1zm.427.188s.09.717.143.782l-.143-.782zm-.172.092s.055.635.085.69l-.085-.69zm-.79.913s.11-.035.207-.14c.11.15.28.007.28.007s.263.18.383-.02c.18.118.27-.017.27-.017s.065.1.115.09l-1.255.08zm.965-.01s.137.635.337.815l-.337-.815zm-.695-.068s.017.533.047.905l-.047-.905zm-.028.6s-.015.35-.035.373l.035-.373zm-.202.405s.037.15.23.01c.192-.14.192.05.2.075.007.018.037.168.11.043l-.54-.128z" stroke="#000" stroke-width=".8"/><path fill-rule="evenodd" clip-rule="evenodd" d="M12.928 5.262s.075.01.117-.015c.04-.025.09-.035.125.015s.058.045.058.045-.05.127 0 .142c.052.015.075.015.08.03.005.018-.045.058-.03.075.012.015.037.038.04.05.005.015-.03.075-.02.088.01.015.042.07.062.07.02 0 .008.087.07.065.063-.023.058-.075.058-.075s.067-.01.085-.07c.017-.06.057-.075.057-.075s.085-.043-.025-.113c0-.485-.32-.435-.32-.435s-.04-.085-.1-.075c-.065.01-.067.083-.112.075-.045-.005-.055-.037-.06-.032a.384.384 0 00-.04.09c0 .017-.123-.025-.113.065.01.09.07.087.068.08v0z" fill="#9C5100" stroke="#000" stroke-width=".8"/><path d="M12.895 5.542l.07.005m.295-.403s-.025.15.138.138c-.02.085.042.112.042.112l-.18-.25zm.3.343c.005 0 .075.045 0 .1v-.1zm-.235.122s.035.04.075.03c.037-.01.1.04.1.04s.05.018.057.005l-.232-.075zm-.21.133s.117.045.192-.143l-.192.143z" stroke="#000" stroke-width=".8"/><path d="M12.905 5.612h.063l-.056.025" stroke="#000" stroke-width=".8" stroke-linejoin="round"/><path d="M12.992 5.417c.01 0 .05-.013.055 0 .008.007-.04.015-.055 0z" stroke="#000" stroke-width="1.4" stroke-linejoin="round"/><path fill-rule="evenodd" clip-rule="evenodd" d="M13.743 6.242c.002 0 .112.342.127.43.028.159.042.32.043.482-.018.05-.195.28-.215.34-.023.06-.148.285-.148.285s-.03.223-.045.233c-.012.01.038.065.033.082-.008.02-.1.118-.143.108-.042-.01-.107-.06-.11-.105-.002-.045 0-.193.033-.233a5.68 5.68 0 00.205-.447c.01-.025.15-.325.152-.375a.346.346 0 00-.092-.218c-.108-.322-.065-.515.16-.582v0z" fill="#FFC6B5" stroke="#000" stroke-width=".8"/><path d="M11.983 7.72s.1.162.09.25m.052-.24l.005.152-.005-.153z" stroke="#000" stroke-width=".8"/><path d="M13.288 8.06s.075-.008.072.114c.048-.15.143-.155.143-.155" stroke="#000" stroke-width=".8" stroke-linejoin="round"/><path fill-rule="evenodd" clip-rule="evenodd" d="M13.04 11.534c1.465-.042 2.413-1.1 2.4-1.11-.01-.01.195-.295.358-.255.162.04.397.52.682.62.143.225-.042.428-.102.47-.063.04-.335.15-.375-.01-.043-.165-.125-.132-.125-.132s-1.3 1.27-2.808 1.22c-1.555.01-2.837-1.22-2.837-1.22l-.113.12s-.122.132-.182.125c-.06-.013-.325-.185-.345-.358-.02-.175.162-.285.162-.285s.448-.345.5-.53c.1-.1.293.073.293.073s1.18 1.352 2.492 1.27v.002z" fill="#F7C600" stroke="#000" stroke-width="1.7"/><path d="M9.725 10.747s.12-.033.165.017c.045.05.35.35.35.35" stroke="#000" stroke-width="1.7"/><path d="M16.37 10.734s-.06-.032-.155.038c-.118.106-.23.22-.335.34M10 10.887l-.12.09s.305.062.235.262L10 10.887z" stroke="#000" stroke-width="1.7"/><path d="M16.097 10.88l.133.1s-.275.02-.215.28" stroke="#000" stroke-width="1.7"/><path d="M11.275 11.07l-.01.012a.09.09 0 00-.062-.005.438.438 0 00-.098.05l-.402.232-.01-.007.1-.47a.685.685 0 00.017-.105c0-.013-.01-.025-.025-.04l.008-.013.217.155-.007.013-.008-.005c-.02-.013-.035-.02-.045-.02h-.011a.02.02 0 00-.009.007.062.062 0 00-.007.018l-.013.057-.065.293.233-.135a.63.63 0 00.055-.035l.02-.02a.028.028 0 00.007-.02l-.007-.025a.13.13 0 00-.035-.033l.01-.012.147.107zm.145.7l-.007.012-.255-.14.007-.013.015.01c.015.008.028.01.04.01.008 0 .015-.002.025-.01l.025-.042.175-.32a.17.17 0 00.025-.05.04.04 0 00-.007-.025.075.075 0 00-.03-.025l-.015-.01.007-.013.255.14-.007.013-.018-.008a.076.076 0 00-.037-.012c-.008 0-.015.002-.025.01a.174.174 0 00-.028.042l-.175.323a.184.184 0 00-.025.05c0 .007.005.015.01.025a.091.091 0 00.028.025l.017.007zm.933-.22l-.065.184-.015-.005a.25.25 0 00-.038-.142.196.196 0 00-.1-.08.155.155 0 00-.107 0 .189.189 0 00-.088.072.49.49 0 00-.09.253.158.158 0 00.028.105c.021.028.05.049.085.06a.213.213 0 00.04.01l.045.002.04-.11.01-.04c0-.007-.005-.015-.013-.025a.071.071 0 00-.03-.017l-.012-.005.005-.015.255.092-.005.015c-.02-.007-.035-.01-.045-.007a.04.04 0 00-.025.012l-.015.035-.04.11a.6.6 0 01-.115-.005.563.563 0 01-.118-.025.338.338 0 01-.185-.15.273.273 0 01-.032-.097.275.275 0 01.015-.128.285.285 0 01.155-.17.301.301 0 01.237-.007c.025.007.05.02.07.03l.05.037a.245.245 0 00.038.03h.025a.075.075 0 00.025-.025l.015.005zm.392.632v.015l-.29-.045.003-.015.02.002a.073.073 0 00.04 0l.017-.017c.005-.008.008-.025.013-.05l.055-.363a.143.143 0 00.002-.055.04.04 0 00-.015-.02.065.065 0 00-.035-.015h-.017v-.017l.29.045-.003.015-.017-.003a.075.075 0 00-.04 0l-.02.018a.177.177 0 00-.013.05l-.055.362a.185.185 0 00-.002.055c0 .008.007.015.015.02.007.008.02.013.035.015h.017v.003zm.75-.183l-.012.198-.495.025v-.015h.017a.074.074 0 00.04-.013.031.031 0 00.015-.02v-.05l-.017-.367a.18.18 0 00-.008-.053c-.002-.007-.01-.012-.017-.017a.091.091 0 00-.038-.008h-.02v-.015l.298-.015v.015l-.025.003a.076.076 0 00-.038.01.039.039 0 00-.015.02c-.005.007-.005.025-.002.052l.017.355c0 .028.005.045.008.055.005.008.01.013.02.015h.097c.026 0 .05-.007.073-.02a.136.136 0 00.05-.05c.01-.025.025-.06.035-.102h.015l.002-.003zm.538-.092l-.188.055-.007.06v.045c.007.015.015.025.03.027a.17.17 0 00.055-.005l.005.015-.178.05-.005-.012a.082.082 0 00.04-.038c.01-.017.015-.05.023-.095l.062-.482h.008l.325.377c.03.038.05.058.067.065a.06.06 0 00.043.003l.002.015-.257.077-.005-.015.012-.002c.02-.008.035-.013.04-.023a.021.021 0 00.004-.01l-.001-.01a.047.047 0 00-.005-.015l-.02-.025-.05-.057zm-.023-.025l-.132-.16-.028.207.16-.05v.003zm.713-.728l.072.135-.015.008a.234.234 0 00-.06-.053.114.114 0 00-.055-.012.126.126 0 00-.052.02l-.038.02.205.377.028.045a.042.042 0 00.025.008.07.07 0 00.037-.01l.018-.01.007.015-.257.137-.008-.012.018-.01a.074.074 0 00.03-.025l.005-.025a.174.174 0 00-.02-.05l-.205-.375-.035.017c-.033.018-.053.038-.06.06a.158.158 0 00.005.105l-.015.008-.07-.135.44-.235v-.003zm.335-.197l.135.182.01-.007c.027-.02.042-.045.04-.073a.231.231 0 00-.035-.097l.012-.008.175.233-.01.01a.216.216 0 00-.065-.05.088.088 0 00-.052-.01c-.018 0-.035.01-.055.025l.092.125c.01.016.023.031.038.045l.022.005c.008 0 .018-.008.033-.015l.025-.02a.2.2 0 00.077-.105.2.2 0 00-.012-.13l.012-.008.088.155-.385.29-.008-.012.015-.01c.013-.01.02-.02.025-.03v-.025a.171.171 0 00-.025-.045l-.222-.293-.03-.035a.04.04 0 00-.025-.01c-.013 0-.025.008-.04.018l-.015.01-.01-.01.372-.283.1.133-.015.01a.195.195 0 00-.077-.05.126.126 0 00-.073.005.402.402 0 00-.075.047l-.042.035" fill="#000"/></g><defs><linearGradient id="paint0_linear" x1="7.838" y1="10.633" x2="7.593" y2="10.597" gradientUnits="userSpaceOnUse"><stop stop-color="red"/><stop offset="1" stop-color="#FF0"/></linearGradient><linearGradient id="paint1_linear" x1="7.822" y1="9.731" x2="7.578" y2="9.695" gradientUnits="userSpaceOnUse"><stop stop-color="red"/><stop offset="1" stop-color="#FF0"/></linearGradient><linearGradient id="paint2_linear" x1="10.988" y1="8.91" x2="10.744" y2="8.874" gradientUnits="userSpaceOnUse"><stop stop-color="red"/><stop offset="1" stop-color="#FF0"/></linearGradient><linearGradient id="paint3_linear" x1="7.898" y1="8.036" x2="7.653" y2="8" gradientUnits="userSpaceOnUse"><stop stop-color="red"/><stop offset="1" stop-color="#FF0"/></linearGradient><linearGradient id="paint4_linear" x1="7.902" y1="7.172" x2="7.657" y2="7.136" gradientUnits="userSpaceOnUse"><stop stop-color="red"/><stop offset="1" stop-color="#FF0"/></linearGradient><linearGradient id="paint5_linear" x1="7.919" y1="6.3" x2="7.675" y2="6.264" gradientUnits="userSpaceOnUse"><stop stop-color="red"/><stop offset="1" stop-color="#FF0"/></linearGradient><linearGradient id="paint6_linear" x1="11.014" y1="6.312" x2="10.769" y2="6.276" gradientUnits="userSpaceOnUse"><stop stop-color="red"/><stop offset="1" stop-color="#FF0"/></linearGradient><linearGradient id="paint7_linear" x1="10.986" y1="7.169" x2="10.741" y2="7.134" gradientUnits="userSpaceOnUse"><stop stop-color="red"/><stop offset="1" stop-color="#FF0"/></linearGradient><linearGradient id="paint8_linear" x1="10.946" y1="8.051" x2="10.701" y2="8.015" gradientUnits="userSpaceOnUse"><stop stop-color="red"/><stop offset="1" stop-color="#FF0"/></linearGradient><linearGradient id="paint9_linear" x1="10.985" y1="10.643" x2="10.741" y2="10.608" gradientUnits="userSpaceOnUse"><stop stop-color="red"/><stop offset="1" stop-color="#FF0"/></linearGradient><linearGradient id="paint10_linear" x1="10.981" y1="9.773" x2="10.736" y2="9.737" gradientUnits="userSpaceOnUse"><stop stop-color="red"/><stop offset="1" stop-color="#FF0"/></linearGradient><linearGradient id="paint11_linear" x1="8.463" y1="8.97" x2="8.218" y2="8.934" gradientUnits="userSpaceOnUse"><stop stop-color="red"/><stop offset="1" stop-color="#FF0"/></linearGradient><clipPath id="clip0"><path fill="#fff" transform="translate(.863 .784)" d="M0 0h16v12H0z"/></clipPath></defs></svg>